<svg width="40" height="40" viewBox="0 0 40 40" fill="none" xmlns="http://www.w3.org/2000/svg">
<rect width="40" height="40" rx="8" fill="#212121"/>
<path d="M20 21.6666C20.9205 21.6666 21.6666 20.9204 21.6666 19.9999C21.6666 19.0794 20.9205 18.3333 20 18.3333C19.0795 18.3333 18.3333 19.0794 18.3333 19.9999C18.3333 20.9204 19.0795 21.6666 20 21.6666Z" stroke="#A43AA5" stroke-width="2.66667" stroke-linecap="round"/>
<path d="M9.99998 21.6666C10.9205 21.6666 11.6666 20.9204 11.6666 19.9999C11.6666 19.0794 10.9205 18.3333 9.99998 18.3333C9.07951 18.3333 8.33331 19.0794 8.33331 19.9999C8.33331 20.9204 9.07951 21.6666 9.99998 21.6666Z" stroke="#A43AA5" stroke-width="2.66667" stroke-linecap="round"/>
<path d="M30 21.6666C30.9205 21.6666 31.6666 20.9204 31.6666 19.9999C31.6666 19.0794 30.9205 18.3333 30 18.3333C29.0795 18.3333 28.3333 19.0794 28.3333 19.9999C28.3333 20.9204 29.0795 21.6666 30 21.6666Z" stroke="#A43AA5" stroke-width="2.66667" stroke-linecap="round"/>
</svg>
