<svg width="32" height="32" viewBox="0 0 32 32" fill="none" xmlns="http://www.w3.org/2000/svg">
<path d="M5.18005 28.0799C4.91591 28.0765 4.66356 27.97 4.47677 27.7832C4.28997 27.5964 4.18351 27.3441 4.18005 27.0799V4.91992C4.18005 4.65471 4.28541 4.40035 4.47295 4.21281C4.66048 4.02528 4.91484 3.91992 5.18005 3.91992C5.44527 3.91992 5.69962 4.02528 5.88716 4.21281C6.0747 4.40035 6.18005 4.65471 6.18005 4.91992V27.0532C6.18362 27.1868 6.16038 27.3197 6.11173 27.4441C6.06307 27.5685 5.98997 27.682 5.89676 27.7777C5.80354 27.8734 5.6921 27.9494 5.569 28.0013C5.4459 28.0532 5.31365 28.08 5.18005 28.0799ZM27.8201 7.12925V24.7959C27.8076 25.3262 27.6608 25.8446 27.3934 26.3026C27.1327 26.7381 26.7634 27.0985 26.3217 27.3486C25.88 27.5986 25.381 27.7298 24.8734 27.7292H24.7401C24.2111 27.7131 23.6978 27.5466 23.2601 27.2492L11.0867 19.0893C10.6964 18.83 10.3721 18.483 10.1401 18.0759C9.9198 17.6648 9.79665 17.2087 9.78005 16.7426C9.76228 16.2833 9.85366 15.8264 10.0467 15.4093C10.2423 14.9872 10.5347 14.6172 10.9001 14.3293L23.0867 4.87592C23.5248 4.54433 24.0465 4.3412 24.5934 4.28926C25.1386 4.23298 25.6886 4.33056 26.1811 4.57094C26.6737 4.81132 27.089 5.18487 27.3801 5.64925C27.6521 6.09592 27.8041 6.60659 27.8201 7.12925Z" fill="white"/>
</svg>
