<svg width="32" height="32" viewBox="0 0 32 32" fill="none" xmlns="http://www.w3.org/2000/svg">
<path d="M26.8199 3.92009C27.0841 3.92354 27.3364 4.03001 27.5232 4.2168C27.71 4.40359 27.8165 4.65594 27.8199 4.92009V27.0801C27.8199 27.3453 27.7146 27.5996 27.5271 27.7872C27.3395 27.9747 27.0852 28.0801 26.8199 28.0801C26.5547 28.0801 26.3004 27.9747 26.1128 27.7872C25.9253 27.5996 25.8199 27.3453 25.8199 27.0801V4.94675C25.8164 4.8132 25.8396 4.6803 25.8883 4.55588C25.9369 4.43145 26.01 4.31805 26.1032 4.22234C26.1965 4.12664 26.3079 4.05059 26.431 3.99868C26.5541 3.94676 26.6863 3.92004 26.8199 3.92009ZM4.17994 24.8707V7.20409C4.19235 6.67385 4.33916 6.15544 4.60661 5.69742C4.86732 5.26191 5.23658 4.90151 5.67828 4.65144C6.11999 4.40137 6.61903 4.2702 7.12661 4.27075H7.25994C7.78886 4.28692 8.30222 4.45342 8.73994 4.75075L20.9133 12.9107C21.3036 13.17 21.6279 13.517 21.8599 13.9241C22.0802 14.3352 22.2034 14.7913 22.2199 15.2574C22.2377 15.7167 22.1463 16.1736 21.9533 16.5907C21.7577 17.0128 21.4653 17.3828 21.0999 17.6707L8.91328 27.1241C8.47523 27.4557 7.95354 27.6588 7.40661 27.7107C6.86144 27.767 6.31142 27.6694 5.81888 27.4291C5.32635 27.1887 4.91101 26.8151 4.61994 26.3507C4.34794 25.9041 4.19594 25.3934 4.17994 24.8707Z" fill="white"/>
</svg>
