<svg width="32" height="24" viewBox="0 0 32 24" fill="none" xmlns="http://www.w3.org/2000/svg">
<path d="M21.3333 8.50001C23.1106 10.278 23.1106 13.722 21.3333 15.5M25.3333 5.00001C30.6506 8.80801 30.6826 15.217 25.3333 19M2.66663 14.959V9.04001C2.66663 8.46601 3.26396 8.00001 3.99996 8.00001H8.78129C8.95774 7.99954 9.13223 7.97228 9.29424 7.91986C9.45625 7.86744 9.60243 7.79095 9.72396 7.69501L13.724 4.30701C14.564 3.65101 16 4.11601 16 5.04301V18.957C16 19.891 14.5466 20.352 13.712 19.683L9.72529 16.314C9.60342 16.2153 9.45576 16.1365 9.29152 16.0825C9.12728 16.0285 8.94997 16.0004 8.77063 16H3.99996C3.26396 16 2.66663 15.534 2.66663 14.959Z" stroke="white" stroke-width="2" stroke-linecap="round" stroke-linejoin="round"/>
</svg>
