<svg width="32" height="32" viewBox="0 0 32 32" fill="none" xmlns="http://www.w3.org/2000/svg">
<g clip-path="url(#clip0_182_67)">
<path fill-rule="evenodd" clip-rule="evenodd" d="M16.9425 20.9427C16.6924 21.1927 16.3534 21.3331 15.9998 21.3331C15.6463 21.3331 15.3072 21.1927 15.0571 20.9427L7.51447 13.4001C7.38713 13.2771 7.28555 13.1299 7.21567 12.9673C7.14579 12.8046 7.10901 12.6296 7.10747 12.4526C7.10593 12.2755 7.13967 12.1 7.20671 11.9361C7.27375 11.7723 7.37276 11.6234 7.49795 11.4982C7.62314 11.373 7.77201 11.274 7.93587 11.207C8.09973 11.1399 8.2753 11.1062 8.45234 11.1077C8.62938 11.1093 8.80434 11.146 8.96701 11.2159C9.12968 11.2858 9.27681 11.3874 9.39981 11.5147L15.9998 18.1147L22.5998 11.5147C22.8513 11.2718 23.1881 11.1374 23.5377 11.1405C23.8873 11.1435 24.2217 11.2837 24.4689 11.531C24.7161 11.7782 24.8563 12.1126 24.8594 12.4622C24.8624 12.8118 24.728 13.1486 24.4851 13.4001L16.9425 20.9427Z" fill="#a43aa5"/>
</g>
<defs>
<clipPath id="clip0_182_67">
<rect width="32" height="32" fill="white"/>
</clipPath>
</defs>
</svg>

